<?xml version="1.0" encoding="utf-8"?>
<!-- Generator: Adobe Illustrator 27.2.0, SVG Export Plug-In . SVG Version: 6.00 Build 0)  -->
<svg version="1.1" id="Calque_1" xmlns="http://www.w3.org/2000/svg" xmlns:xlink="http://www.w3.org/1999/xlink" x="0px" y="0px"
	 viewBox="0 0 200 200" style="enable-background:new 0 0 200 200;" xml:space="preserve">
<path d="M177.6,103.2c-8.5,2.8-20.5,8.5-30.9,19.9c-7,7.7-12.4,17.1-15.5,27.1l-6-1.9c3.4-10.9,9.2-21.1,16.8-29.4
	c6.4-7.1,13.4-12.1,19.9-15.7H26.4v-6.3h135.5c-6.5-3.6-13.5-8.6-19.9-15.7c-7.6-8.4-13.4-18.5-16.8-29.4l6-1.9
	c3.1,10,8.5,19.4,15.5,27.1c10.4,11.5,22.4,17.1,30.9,19.9V103.2z"/>
</svg>
